M48
;DRILL file {KiCad 4.0.2+dfsg1-2~bpo8+1-stable} date Qui 05 Jan 2017 13:39:39 BRST
;FORMAT={-:-/ absolute / metric / decimal}
FMAT,2
METRIC,TZ
T1C0.701
T2C0.800
T3C0.800
T4C0.950
T5C1.000
T6C1.001
T7C1.002
T8C1.524
T9C1.600
T10C2.301
T11C2.500
T12C3.800
T13C4.000
%
G90
G05
M71
T1
X8.873Y140.279
X8.873Y130.119
X10.717Y93.191
X10.717Y83.031
X29.459Y67.077
X33.623Y120.879
X33.623Y110.719
X39.619Y67.077
T2
X5.645Y134.53
X8.025Y71.85
X8.025Y69.31
X8.025Y66.77
X8.025Y64.23
X8.27Y110.53
X8.82Y127.48
X10.47Y85.18
X10.52Y109.18
X10.52Y106.64
X10.52Y104.1
X10.62Y101.16
X10.62Y98.62
X10.62Y96.08
X12.12Y112.08
X12.42Y102.53
X13.72Y50.28
X14.97Y146.68
X15.32Y40.98
X15.645Y71.85
X15.645Y69.31
X15.645Y66.77
X15.645Y64.23
X16.97Y26.43
X17.69Y111.88
X17.695Y90.33
X17.72Y101.68
X19.395Y131.305
X19.47Y38.18
X20.32Y134.18
X21.12Y109.98
X21.22Y105.93
X21.57Y96.93
X22.86Y134.18
X23.62Y109.98
X24.07Y96.93
X24.52Y118.58
X24.77Y94.955
X25.4Y134.18
X25.445Y59.33
X27.72Y79.48
X28.65Y53.575
X28.65Y51.035
X28.65Y48.495
X28.65Y45.955
X29.195Y92.305
X29.52Y61.355
X29.97Y132.18
X30.22Y79.48
X31.47Y16.93
X31.52Y112.78
X31.82Y123.28
X32.22Y33.43
X32.4Y22.1
X32.42Y103.28
X32.82Y84.58
X33.42Y74.78
X34.82Y132.68
X34.82Y128.66
X34.82Y126.12
X34.82Y123.58
X35.96Y74.78
X36.27Y53.575
X36.27Y51.035
X36.27Y48.495
X36.27Y45.955
X36.445Y62.48
X37.22Y33.43
X37.32Y132.68
X38.5Y74.78
X38.5Y25.5
X38.62Y71.755
X39.72Y135.43
X42.3Y17.3
X43.5Y22.5
X43.5Y20.
X43.585Y97.615
X43.585Y88.615
X46.085Y112.515
X46.085Y97.615
X46.085Y88.615
X50.12Y13.08
X52.66Y142.09
X54.585Y135.615
X55.385Y89.815
X55.63Y86.69
X57.885Y123.315
X58.22Y45.93
X58.47Y51.93
X60.36Y88.69
X60.385Y97.315
X62.86Y88.69
X62.885Y97.315
X62.985Y112.615
X63.825Y18.2
X64.13Y28.79
X66.12Y31.38
X66.22Y40.28
X66.63Y28.79
X68.76Y142.09
X69.485Y135.715
X70.76Y86.79
X71.765Y79.655
X71.765Y77.115
X71.765Y74.575
X71.765Y72.035
X71.765Y69.495
X71.765Y66.955
X71.765Y64.415
X71.885Y60.715
X72.73Y31.99
X73.03Y28.29
X73.085Y123.315
X73.11Y23.17
X75.06Y25.79
X75.635Y97.415
X75.635Y87.165
X78.135Y97.415
X78.135Y87.165
X78.175Y112.915
X79.385Y79.655
X79.385Y77.115
X79.385Y74.575
X79.385Y72.035
X79.385Y69.495
X79.385Y66.955
X79.385Y64.415
X82.06Y139.89
X82.13Y29.69
T3
X5.874Y144.387
X5.874Y136.767
X6.128Y106.16
X6.128Y98.54
X7.652Y89.523
X7.652Y81.903
X8.795Y122.67
X8.795Y115.05
X11.589Y47.867
X11.589Y40.247
X12.097Y145.149
X12.097Y137.529
X12.097Y133.973
X12.097Y126.353
X12.097Y122.543
X12.097Y114.923
X13.24Y87.745
X13.24Y80.125
X16.415Y87.745
X16.415Y80.125
X16.542Y17.768
X16.542Y10.148
X21.114Y121.908
X21.114Y114.288
X21.622Y93.714
X21.622Y86.094
X21.82Y141.885
X21.82Y138.075
X22.003Y101.969
X24.295Y129.66
X24.295Y125.85
X24.416Y121.908
X24.416Y114.288
X24.543Y89.015
X24.543Y81.395
X25.051Y91.936
X28.48Y41.771
X29.623Y101.969
X32.671Y91.936
X33.433Y144.641
X33.433Y137.021
X36.1Y41.771
X36.6Y121.11
X36.6Y113.49
X36.735Y144.641
X36.735Y137.021
X39.402Y55.106
X39.402Y47.486
X41.68Y101.115
X41.68Y92.615
X42.704Y69.838
X42.704Y62.218
X45.49Y101.115
X45.49Y92.615
X58.48Y101.315
X58.48Y92.815
X62.29Y101.315
X62.29Y92.815
X66.625Y23.085
X66.625Y15.465
X73.692Y102.223
X73.73Y92.665
X77.502Y102.223
X77.54Y92.665
T4
X10.751Y26.887
X10.751Y24.397
X12.757Y26.887
X12.757Y24.397
T5
X15.15Y139.204
X15.15Y128.104
X15.15Y117.204
X15.2Y106.454
X15.25Y94.404
X17.69Y139.204
X17.69Y128.104
X17.69Y117.204
X17.74Y106.454
X17.79Y94.404
X27.28Y96.804
X27.45Y139.404
X27.45Y128.104
X27.45Y116.804
X27.45Y107.004
X27.45Y86.204
X27.45Y72.804
X29.82Y96.804
X29.99Y139.404
X29.99Y128.104
X29.99Y116.804
X29.99Y107.004
X29.99Y86.204
X29.99Y72.804
X32.36Y96.804
X35.201Y11.502
X37.741Y11.502
X39.773Y11.502
X39.775Y139.539
X41.045Y128.039
X41.045Y117.039
X41.045Y106.539
X42.313Y11.502
X42.315Y139.539
X43.585Y128.039
X43.585Y117.039
X43.585Y106.539
X44.855Y139.539
X46.125Y128.039
X46.125Y117.039
X46.125Y106.539
X47.395Y139.539
X54.99Y48.57
X54.99Y46.03
X54.99Y43.49
X54.99Y40.95
X54.99Y38.41
X54.99Y35.87
X54.99Y33.33
X54.99Y30.79
X54.99Y28.25
X54.99Y25.71
X54.99Y23.17
X54.99Y20.63
X54.99Y18.09
X54.99Y15.55
X54.99Y13.01
X56.325Y139.739
X57.845Y128.239
X57.845Y117.239
X57.845Y107.239
X58.865Y139.739
X60.385Y128.239
X60.385Y117.239
X60.385Y107.239
X61.405Y139.739
X62.925Y128.239
X62.925Y117.239
X62.925Y107.239
X63.945Y139.739
X70.23Y48.57
X70.23Y46.03
X70.23Y43.49
X70.23Y40.95
X70.23Y38.41
X70.23Y35.87
X70.23Y33.33
X70.23Y30.79
X70.23Y28.25
X70.23Y25.71
X70.23Y23.17
X70.23Y20.63
X70.23Y18.09
X70.23Y15.55
X70.23Y13.01
X71.575Y139.839
X73.095Y128.589
X73.095Y117.839
X73.095Y107.839
X74.115Y139.839
X75.635Y128.589
X75.635Y117.839
X75.635Y107.839
X76.655Y139.839
X78.175Y128.589
X78.175Y117.839
X78.175Y107.839
X79.195Y139.839
T6
X6.636Y43.676
X9.176Y43.676
X12.47Y13.93
X21.68Y9.43
X24.22Y9.43
X26.76Y9.43
T7
X47.25Y153.5
X47.25Y2.
T8
X7.945Y55.32
X7.945Y50.24
T9
X19.57Y52.625
X19.57Y45.005
T10
X8.033Y31.662
X8.033Y19.622
T11
X31.645Y8.835
X45.361Y8.835
T12
X24.22Y26.194
T13
X7.75Y149.25
X8.Y6.75
X58.Y66.5
X77.25Y152.
X87.5Y6.75
T0
M30
